<svg id="Layer_1" viewBox="0 0 24 24" xmlns="http://www.w3.org/2000/svg" data-name="Layer 1"><path d="m21.976 10h-6.976c-1.654 0-3-1.346-3-3v-6.976c-.161-.011-.322-.024-.485-.024h-4.515c-2.757 0-5 2.243-5 5v7.8c0-.442.358-.8.8-.8s.8.358.8.8v2.4h1.4v-2.4c0-.442.358-.8.8-.8s.8.358.8.8v6.4c0 .442-.358.8-.8.8s-.8-.358-.8-.8v-2.4h-1.4v2.4c0 .442-.358.8-.8.8-.37 0-.668-.257-.759-.599.208 2.567 2.34 4.599 4.959 4.599h10c2.62 0 4.751-2.032 4.959-4.599-.091.342-.389.599-.759.599h-1.4c-.442 0-.8-.358-.8-.8v-6.4c0-.442.358-.8.8-.8s.8.358.8.8v5.6h.6c.418 0 .751.324.786.733.001-.045.013-.088.013-.133v-8.515c0-.163-.013-.324-.024-.485zm-11.276 3.6h-.4v5.601c0 .442-.358.8-.8.8-.442 0-.8-.358-.8-.8v-5.601h-.4c-.442 0-.8-.358-.8-.8s.358-.8.8-.8h2.4c.442 0 .8.358.8.8s-.358.8-.8.8zm6.449 6.4c-.423 0-.773-.329-.799-.751l-.167-2.68-.467 1.197c-.255.654-1.18.654-1.434 0l-.466-1.197-.167 2.679c-.026.422-.376.751-.799.751-.461 0-.827-.389-.799-.849l.383-6.228c.037-.705.405-.923.847-.923.293 0 .566.165.721.563l.997 2.637.997-2.637c.155-.398.428-.563.721-.563.442 0 .81.218.847.923l.383 6.228c.028.46-.337.849-.799.849zm-3.149-13v-6.54c.913.346 1.753.879 2.465 1.59l3.484 3.486c.712.711 1.245 1.551 1.591 2.464h-6.54c-.552 0-1-.449-1-1z"/></svg>