<svg width="4714" height="522" viewBox="0 0 4714 522" fill="none" xmlns="http://www.w3.org/2000/svg">
<path d="M4543.88 327V207.5L4428.38 5H4484.88L4570.88 161.5L4656.88 5H4713.38L4597.88 207.5V327H4543.88Z" fill="#F03E25"/>
<path d="M4170.55 327V5H4326.55C4358.55 5 4382.21 12.5 4397.55 27.5C4412.88 42.5 4420.55 63.6667 4420.55 91C4420.55 108.333 4417.05 123 4410.05 135C4403.05 146.667 4393.71 155.5 4382.05 161.5C4397.71 165.833 4410.05 173.667 4419.05 185C4428.38 196 4433.05 212.333 4433.05 234C4433.05 265.333 4424.55 288.667 4407.55 304C4390.88 319.333 4366.21 327 4333.55 327H4170.55ZM4225.05 142.5H4319.05C4337.38 142.5 4350.38 138.333 4358.05 130C4366.05 121.333 4370.05 109.833 4370.05 95.5C4370.05 78.8334 4366.05 66.5 4358.05 58.5C4350.05 50.1667 4335.05 46 4313.05 46H4225.05V142.5ZM4225.05 287H4322.05C4341.38 287 4355.55 283 4364.55 275C4373.55 266.667 4378.05 252.333 4378.05 232C4378.05 215.333 4373.55 203 4364.55 195C4355.88 186.667 4339.88 182.5 4316.55 182.5H4225.05V287Z" fill="#F03E25"/>
<path d="M4000.7 332C3959.04 332 3925.54 326.667 3900.2 316V268C3914.54 273.333 3929.87 277.667 3946.2 281C3962.87 284.333 3979.37 286 3995.7 286C4021.37 286 4040.54 283 4053.2 277C4066.2 271 4072.7 259 4072.7 241C4072.7 230 4070.04 221.167 4064.7 214.5C4059.37 207.833 4050.54 202.167 4038.2 197.5C4025.87 192.5 4008.87 187.333 3987.2 182C3952.54 173 3928.2 161.667 3914.2 148C3900.2 134 3893.2 114.833 3893.2 90.5C3893.2 62.1667 3903.54 40 3924.2 24C3944.87 8.00001 3975.7 0 4016.7 0C4035.37 0 4052.87 1.33334 4069.2 4.00001C4085.87 6.66668 4098.87 9.66669 4108.2 13V61C4082.87 51.3333 4054.87 46.5 4024.2 46.5C4000.2 46.5 3981.54 49.6667 3968.2 56C3954.87 62.3333 3948.2 73.8334 3948.2 90.5C3948.2 100.167 3950.54 108 3955.2 114C3959.87 120 3967.87 125.167 3979.2 129.5C3990.87 133.833 4006.87 138.667 4027.2 144C4053.54 150.667 4073.87 158.667 4088.2 168C4102.87 177 4113.04 187.667 4118.7 200C4124.7 212 4127.7 225.667 4127.7 241C4127.7 269.333 4117.2 291.667 4096.2 308C4075.2 324 4043.37 332 4000.7 332Z" fill="#F03E25"/>
<path d="M3608.03 327V5H3756.03C3792.03 5 3818.19 14.3333 3834.53 33C3851.19 51.3333 3859.53 76.3333 3859.53 108C3859.53 130.667 3853.86 150 3842.53 166C3831.19 182 3814.86 193.167 3793.53 199.5C3799.53 203.833 3804.19 208.5 3807.53 213.5C3810.86 218.5 3814.19 225.167 3817.53 233.5L3858.03 327H3802.03L3762.53 237C3758.86 228.333 3754.36 222.167 3749.03 218.5C3744.03 214.833 3735.36 213 3723.03 213H3662.53V327H3608.03ZM3662.53 169H3741.53C3761.19 169 3776.69 164.167 3788.03 154.5C3799.36 144.833 3805.03 129.333 3805.03 108C3805.03 67.6667 3785.53 47.5 3746.53 47.5H3662.53V169Z" fill="#F03E25"/>
<path d="M3343.12 327V5H3567.62V47.5H3397.62V145H3549.12V187H3397.62V285H3567.62V327H3343.12Z" fill="#F03E25"/>
<path d="M3025.98 327V5H3080.48V145H3235.48V5H3289.98V327H3235.48V187H3080.48V327H3025.98Z" fill="#F03E25"/>
<path d="M2835.3 327V47.5H2732.3V5H2992.3V47.5H2889.8V327H2835.3Z" fill="#F03E25"/>
<path d="M2444.68 327L2567.68 5H2628.68L2750.68 327H2694.68L2662.68 244H2533.18L2501.18 327H2444.68ZM2541.68 202H2653.68L2597.68 54.5L2541.68 202Z" fill="#F03E25"/>
<path d="M2189.28 327V5H2413.78V47.5H2243.78V145H2395.28V187H2243.78V285H2413.78V327H2189.28Z" fill="#F03E25"/>
<path d="M1830.21 327L1755.21 5H1808.71L1863.21 246.5L1924.21 44V5H1968.71L2037.21 246.5L2058.5 132.662H2111.5L2071.21 327H2017.71L1953.21 101.5L1884.71 327H1830.21Z" fill="#F03E25"/>
<path d="M2124 25.5C2124 39.5833 2112.58 51 2098.5 51C2084.42 51 2073 39.5833 2073 25.5C2073 11.4167 2084.42 0 2098.5 0C2112.58 0 2124 11.4167 2124 25.5Z" fill="#F03E25"/>
<path d="M3509.75 521.5C3493.85 521.5 3481.8 517.15 3473.6 508.45C3465.5 499.75 3461.45 488 3461.45 473.2C3461.45 462.6 3463.15 453.5 3466.55 445.9C3470.05 438.2 3475.35 432.3 3482.45 428.2C3489.55 424 3498.6 421.9 3509.6 421.9C3515.2 421.9 3520.3 422.35 3524.9 423.25C3529.6 424.05 3533.95 425.15 3537.95 426.55V440.8C3533.95 439.2 3529.65 438 3525.05 437.2C3520.55 436.3 3515.8 435.85 3510.8 435.85C3498.8 435.85 3490.3 439.05 3485.3 445.45C3480.4 451.85 3477.95 461.1 3477.95 473.2C3477.95 484.5 3480.65 493.1 3486.05 499C3491.45 504.8 3499.8 507.7 3511.1 507.7C3515.7 507.7 3520.3 507.35 3524.9 506.65C3529.6 505.85 3534 504.65 3538.1 503.05V517.45C3534.1 518.75 3529.75 519.75 3525.05 520.45C3520.45 521.15 3515.35 521.5 3509.75 521.5ZM3550.95 520V423.4H3595.35C3606.15 423.4 3614 426.2 3618.9 431.8C3623.9 437.3 3626.4 444.8 3626.4 454.3C3626.4 461.1 3624.7 466.9 3621.3 471.7C3617.9 476.5 3613 479.85 3606.6 481.75C3608.4 483.05 3609.8 484.45 3610.8 485.95C3611.8 487.45 3612.8 489.45 3613.8 491.95L3625.95 520H3609.15L3597.3 493C3596.2 490.4 3594.85 488.55 3593.25 487.45C3591.75 486.35 3589.15 485.8 3585.45 485.8H3567.3V520H3550.95ZM3567.3 472.6H3591C3596.9 472.6 3601.55 471.15 3604.95 468.25C3608.35 465.35 3610.05 460.7 3610.05 454.3C3610.05 442.2 3604.2 436.15 3592.5 436.15H3567.3V472.6ZM3639.5 520V423.4H3706.85V436.15H3655.85V465.4H3701.3V478H3655.85V507.4H3706.85V520H3639.5ZM3716.13 520L3753.03 423.4H3771.33L3807.93 520H3791.13L3781.53 495.1H3742.68L3733.08 520H3716.13ZM3745.23 482.5H3778.83L3762.03 438.25L3745.23 482.5ZM3833.31 520V436.15H3802.41V423.4H3880.41V436.15H3849.66V520H3833.31ZM3890.51 520V423.4H3906.86V520H3890.51ZM3954.67 520L3917.77 423.4H3934.72L3963.67 502.45L3992.62 423.4H4009.57L3972.97 520H3954.67ZM4020.45 520V423.4H4087.8V436.15H4036.8V465.4H4082.25V478H4036.8V507.4H4087.8V520H4020.45ZM4160.74 521.5C4148.24 521.5 4138.19 519.9 4130.59 516.7V502.3C4134.89 503.9 4139.49 505.2 4144.39 506.2C4149.39 507.2 4154.34 507.7 4159.24 507.7C4166.94 507.7 4172.69 506.8 4176.49 505C4180.39 503.2 4182.34 499.6 4182.34 494.2C4182.34 490.9 4181.54 488.25 4179.94 486.25C4178.34 484.25 4175.69 482.55 4171.99 481.15C4168.29 479.65 4163.19 478.1 4156.69 476.5C4146.29 473.8 4138.99 470.4 4134.79 466.3C4130.59 462.1 4128.49 456.35 4128.49 449.05C4128.49 440.55 4131.59 433.9 4137.79 429.1C4143.99 424.3 4153.24 421.9 4165.54 421.9C4171.14 421.9 4176.39 422.3 4181.29 423.1C4186.29 423.9 4190.19 424.8 4192.99 425.8V440.2C4185.39 437.3 4176.99 435.85 4167.79 435.85C4160.59 435.85 4154.99 436.8 4150.99 438.7C4146.99 440.6 4144.99 444.05 4144.99 449.05C4144.99 451.95 4145.69 454.3 4147.09 456.1C4148.49 457.9 4150.89 459.45 4154.29 460.75C4157.79 462.05 4162.59 463.5 4168.69 465.1C4176.59 467.1 4182.69 469.5 4186.99 472.3C4191.39 475 4194.44 478.2 4196.14 481.9C4197.94 485.5 4198.84 489.6 4198.84 494.2C4198.84 502.7 4195.69 509.4 4189.39 514.3C4183.09 519.1 4173.54 521.5 4160.74 521.5ZM4230.74 520V436.15H4199.84V423.4H4277.84V436.15H4247.09V520H4230.74ZM4329.19 521.5C4315.89 521.5 4305.54 518.3 4298.14 511.9C4290.84 505.5 4287.19 496.25 4287.19 484.15V423.4H4303.54V483.55C4303.54 491.65 4305.74 497.7 4310.14 501.7C4314.64 505.7 4320.99 507.7 4329.19 507.7C4337.29 507.7 4343.54 505.7 4347.94 501.7C4352.44 497.7 4354.69 491.65 4354.69 483.55V423.4H4370.89V484.15C4370.89 496.25 4367.24 505.5 4359.94 511.9C4352.64 518.3 4342.39 521.5 4329.19 521.5ZM4386.02 520V423.4H4425.17C4439.47 423.4 4450.07 427.2 4456.97 434.8C4463.87 442.3 4467.32 454.8 4467.32 472.3C4467.32 488.8 4463.92 500.9 4457.12 508.6C4450.32 516.2 4439.67 520 4425.17 520H4386.02ZM4402.37 507.4H4422.62C4428.92 507.4 4434.17 506.5 4438.37 504.7C4442.57 502.8 4445.72 499.3 4447.82 494.2C4449.92 489.1 4450.97 481.8 4450.97 472.3C4450.97 462.8 4450.02 455.45 4448.12 450.25C4446.22 445.05 4443.17 441.4 4438.97 439.3C4434.87 437.2 4429.42 436.15 4422.62 436.15H4402.37V507.4ZM4480.43 520V423.4H4496.78V520H4480.43ZM4555.48 521.5C4540.18 521.5 4528.73 517.5 4521.13 509.5C4513.53 501.4 4509.73 488.9 4509.73 472C4509.73 454.4 4513.53 441.65 4521.13 433.75C4528.73 425.85 4540.18 421.9 4555.48 421.9C4570.88 421.9 4582.33 425.85 4589.83 433.75C4597.43 441.65 4601.23 454.4 4601.23 472C4601.23 488.9 4597.43 501.4 4589.83 509.5C4582.33 517.5 4570.88 521.5 4555.48 521.5ZM4555.48 507.7C4565.58 507.7 4572.98 504.95 4577.68 499.45C4582.48 493.85 4584.88 484.7 4584.88 472C4584.88 458.6 4582.48 449.25 4577.68 443.95C4572.98 438.55 4565.58 435.85 4555.48 435.85C4545.48 435.85 4538.08 438.55 4533.28 443.95C4528.58 449.25 4526.23 458.6 4526.23 472C4526.23 484.7 4528.58 493.85 4533.28 499.45C4538.08 504.95 4545.48 507.7 4555.48 507.7Z" fill="#F03E25"/>
<path d="M22.5 327V4.99997H114L194 168.5L273.5 4.99997H364.5V327H270.5V166L219 272H168.5L116.5 166V327H22.5ZM389.707 327L513.207 4.99997H612.707L736.207 327H638.207L611.207 258.5H514.207L487.707 327H389.707ZM526.707 191H598.707L562.707 96.5L526.707 191ZM789.309 327V75H698.809V4.99997H973.809V75H883.309V327H789.309ZM1076.67 327V75H986.172V4.99997H1261.17V75H1170.67V327H1076.67ZM1275.96 327V4.99997H1369.96V327H1275.96ZM1405.12 327V4.99997H1649.12V77H1499.12V129.5H1630.62V202.5H1499.12V255H1649.12V327H1405.12Z" fill="#F03E25"/>
</svg>
